<?xml version="1.0" encoding="UTF-8"?>
<svg width="32" height="32" viewBox="0 0 32 32" fill="none" xmlns="http://www.w3.org/2000/svg">
  <rect width="32" height="32" rx="8" fill="#2563eb"/>
  <path d="M16 8C11.582 8 8 11.582 8 16C8 20.418 11.582 24 16 24C20.418 24 24 20.418 24 16C24 11.582 20.418 8 16 8ZM16 22C12.686 22 10 19.314 10 16C10 12.686 12.686 10 16 10C19.314 10 22 12.686 22 16C22 19.314 19.314 22 16 22Z" fill="white"/>
  <path d="M17 12H15V16.414L17.293 18.707L18.707 17.293L17 15.586V12Z" fill="white"/>
  <path d="M16 6V8M26 16H24M16 24V26M8 16H6M22.627 9.373L21.213 10.787M22.627 22.627L21.213 21.213M9.373 22.627L10.787 21.213M9.373 9.373L10.787 10.787" stroke="white" stroke-width="2" stroke-linecap="round"/>
</svg> 